<svg width="52" height="52" viewBox="0 0 52 52" fill="none" xmlns="http://www.w3.org/2000/svg">
<circle cx="26" cy="26" r="25.5" fill="white" stroke="url(#paint0_linear_586_12)"/>
<g clip-path="url(#clip0_586_12)">
<rect width="28" height="28" transform="translate(12 12)" fill="white"/>
<path d="M33.0145 32.1965C32.7801 31.9724 32.5012 31.8 32.1959 31.6907C31.8905 31.5813 31.5656 31.5374 31.2422 31.5617C30.9188 31.5861 30.6042 31.6781 30.3186 31.832C30.0331 31.9858 29.7832 32.198 29.585 32.4547C29.2513 32.7901 28.8132 33.0016 28.343 33.0544C27.8729 33.1072 27.3988 32.9981 26.999 32.7451C25.5509 31.8276 24.2036 30.76 22.9795 29.5598C21.6401 28.2465 20.4582 26.7815 19.4578 25.1946C19.2046 24.7971 19.0957 24.3246 19.1494 23.8563C19.2032 23.388 19.4162 22.9524 19.7529 22.6225C20.0302 22.4002 20.2555 22.1201 20.4132 21.8016C20.5708 21.4831 20.6569 21.134 20.6655 20.7787C20.666 20.4839 20.608 20.192 20.4948 19.9198C20.3817 19.6476 20.2157 19.4006 20.0064 19.193L17.7108 16.8975C17.2897 16.478 16.7195 16.2424 16.1251 16.2424C15.5307 16.2424 14.9606 16.478 14.5394 16.8975L13.6083 17.8286C12.7161 18.7188 12.1582 19.8896 12.0289 21.1433C11.8996 22.3971 12.2067 23.657 12.8985 24.7106C14.8252 27.6094 17.0364 30.3086 19.4993 32.7681C21.9231 35.1842 24.577 37.3579 27.4231 39.2583C28.4812 39.9668 29.7517 40.2877 31.0194 40.1668C32.287 40.0458 33.4739 39.4904 34.3789 38.5946C35.0435 37.9209 36.0372 37.1356 35.9645 36.0777C35.965 35.783 35.907 35.491 35.7939 35.2188C35.6807 34.9467 35.5147 34.6996 35.3054 34.4921L33.0145 32.1965Z" fill="#FF5C00"/>
<path d="M34.6295 17.3778C33.4845 16.2265 32.1225 15.3137 30.6224 14.6922C29.1223 14.0708 27.5138 13.7531 25.89 13.7575C25.7686 13.7588 25.6526 13.808 25.5672 13.8943C25.4819 13.9806 25.434 14.0971 25.434 14.2185C25.434 14.3399 25.4819 14.4564 25.5672 14.5427C25.6526 14.629 25.7686 14.6781 25.89 14.6794C32.0381 14.552 37.4561 19.9715 37.328 26.1192C37.3298 26.2403 37.3791 26.3559 37.4654 26.4409C37.5517 26.5259 37.6679 26.5735 37.7891 26.5735C37.9102 26.5735 38.0265 26.5258 38.1127 26.4408C38.199 26.3557 38.2483 26.2402 38.25 26.1191C38.2546 24.495 37.9369 22.8862 37.3155 21.3857C36.694 19.8853 35.781 18.523 34.6295 17.3778Z" fill="#FF5C00"/>
<path d="M25.4281 21.7913C25.4281 21.9136 25.4767 22.0308 25.5631 22.1173C25.6496 22.2037 25.7668 22.2523 25.8891 22.2523C26.9129 22.2572 27.8934 22.6661 28.6174 23.3901C29.3413 24.1141 29.7502 25.0946 29.7551 26.1184C29.7555 26.2404 29.8043 26.3573 29.8907 26.4435C29.9771 26.5296 30.0941 26.578 30.2161 26.578C30.3381 26.578 30.4552 26.5296 30.5416 26.4434C30.628 26.3573 30.6767 26.2404 30.6771 26.1184C30.6769 24.8486 30.1724 23.6309 29.2745 22.733C28.3766 21.8351 27.1589 21.3306 25.8891 21.3304C25.7668 21.3304 25.6496 21.379 25.5631 21.4654C25.4767 21.5518 25.4281 21.6691 25.4281 21.7913Z" fill="#FF5C00"/>
<path d="M33.5417 26.1189C33.5436 26.2399 33.5929 26.3553 33.6792 26.4402C33.7654 26.5252 33.8816 26.5728 34.0026 26.5728C34.1237 26.5727 34.2399 26.5251 34.3261 26.4402C34.4123 26.3553 34.4617 26.2399 34.4636 26.1188C34.5587 21.5096 30.4981 17.4487 25.8886 17.544C25.7676 17.5459 25.6522 17.5953 25.5674 17.6816C25.4825 17.7678 25.4349 17.884 25.4349 18.005C25.4349 18.126 25.4825 18.2421 25.5674 18.3283C25.6523 18.4146 25.7677 18.4639 25.8887 18.4658C27.9155 18.4753 29.8566 19.2846 31.2898 20.7178C32.7229 22.151 33.5323 24.0921 33.5417 26.1189Z" fill="#FF5C00"/>
</g>
<defs>
<linearGradient id="paint0_linear_586_12" x1="26" y1="0" x2="26" y2="52" gradientUnits="userSpaceOnUse">
<stop stop-color="#FF5C00"/>
<stop offset="1" stop-color="#E4320A"/>
</linearGradient>
<clipPath id="clip0_586_12">
<rect width="28" height="28" fill="white" transform="translate(12 12)"/>
</clipPath>
</defs>
</svg>
