<svg width="42" height="42" viewBox="0 0 42 42" fill="none" xmlns="http://www.w3.org/2000/svg">
<rect width="42" height="42" rx="8" fill="white"/>
<path d="M35.8766 31.1859L28.0048 21.5376L36.7484 10.8125H29.1534L24.0566 16.9781L20.9723 12.8131H13.3542L20.1078 21.5382L12.2448 31.1875L20.108 31.1859L24.0566 26.0946L28.0256 31.1859H35.8766Z" fill="black"/>
<path d="M15.0108 21.2482C15.0278 21.891 14.9145 22.5306 14.6777 23.1285C14.4409 23.7263 14.0855 24.27 13.6329 24.7268C12.714 25.6608 11.5468 26.1278 10.1312 26.1278C8.71569 26.1278 7.54861 25.661 6.63 24.7272C6.17729 24.2704 5.82178 23.7267 5.58489 23.1288C5.34801 22.5308 5.23465 21.8911 5.25167 21.2482C5.25167 19.8327 5.71097 18.6656 6.62959 17.747C7.5482 16.8284 8.71542 16.3689 10.1312 16.3687C11.5468 16.3687 12.7139 16.828 13.6325 17.7466C14.5511 18.6652 15.0106 19.8324 15.0108 21.2482Z" fill="#D8610A"/>
</svg>
