<svg width="100" height="22" viewBox="0 0 100 22" fill="none" xmlns="http://www.w3.org/2000/svg">
<path d="M9.4428 21.999C8.61453 21.999 7.56165 21.8482 6.80746 21.5465C6.05254 21.2447 5.36283 20.8104 4.77369 20.2657V21.5968H0V0H4.77369V9.91967C5.3153 9.40603 5.9638 9.00811 6.6767 8.75196C7.43865 8.47266 8.24807 8.33199 9.06361 8.33712C10.2797 8.31764 11.4767 8.62889 12.5164 9.23494C13.5236 9.82915 14.3458 10.6727 14.8967 11.6772C15.4839 12.7531 15.7807 13.9533 15.7599 15.1679C15.7599 16.5073 15.4613 17.6918 14.864 18.7214C14.3041 19.7136 13.4806 20.5455 12.4771 21.1326C11.4831 21.7099 10.6461 21.999 9.4428 21.999ZM7.71636 18.119C8.26393 18.1303 8.80431 17.9978 9.27932 17.736C9.72315 17.4858 10.089 17.1259 10.3387 16.6937C10.6001 16.2385 10.7331 15.7256 10.7246 15.2058C10.7351 14.6683 10.5975 14.1377 10.3257 13.6677C10.0704 13.2304 9.70069 12.8647 9.25314 12.6067C8.7839 12.3418 8.24745 12.2069 7.70327 12.217C7.15936 12.2091 6.62352 12.3439 6.1534 12.6067C5.70142 12.8606 5.32704 13.2244 5.06793 13.6614C4.79561 14.1289 4.6579 14.6577 4.66898 15.1933C4.66116 15.7158 4.79658 16.2311 5.06165 16.6875C5.31609 17.1241 5.68899 17.4865 6.1407 17.7359C6.62077 17.9968 7.16498 18.1291 7.71649 18.119H7.71636ZM24.4179 21.999C23.0433 22.0199 21.6852 21.709 20.4682 21.0949C19.3382 20.5262 18.3842 19.6817 17.7021 18.6464C17.0216 17.6007 16.6696 16.3887 16.6885 15.1557C16.68 14.2329 16.8763 13.319 17.2644 12.4748C17.6445 11.655 18.1915 10.9165 18.873 10.3026C19.5716 9.67307 20.3912 9.18044 21.2861 8.85228C22.2401 8.5029 23.2537 8.32809 24.2746 8.33687C25.6696 8.33687 26.8925 8.61519 27.9432 9.17183C28.9744 9.71021 29.8284 10.5148 30.4085 11.4948C31.0014 12.4867 31.2979 13.6357 31.2979 14.9416C31.2979 15.0506 31.2957 15.1511 31.2914 15.2433C31.287 15.3355 31.2717 15.5197 31.2455 15.7958H21.606C21.5944 16.2735 21.7261 16.7443 21.9856 17.1519C22.2463 17.5436 22.6185 17.8552 23.0581 18.0498C23.571 18.2735 24.1298 18.3829 24.6929 18.3699C25.2223 18.3817 25.7469 18.2719 26.2232 18.0498C26.7436 17.7727 27.2122 17.4141 27.6096 16.9888L31.0361 18.6337C30.4044 19.6922 29.466 20.5517 28.3351 21.1075C27.1259 21.7103 25.7802 22.0166 24.4179 21.999ZM21.7499 13.4856H26.6152C26.5697 13.106 26.4257 12.7433 26.1963 12.431C25.9812 12.1486 25.6926 11.9256 25.3593 11.7843C24.9832 11.6309 24.5776 11.5561 24.1691 11.5646C23.7451 11.5558 23.324 11.6329 22.9331 11.7908C22.5971 11.928 22.309 12.1545 22.1026 12.4438C21.8928 12.7557 21.7712 13.1148 21.7499 13.4856ZM42.8329 21.5968V8.73939H47.6065V10.0453C48.1944 9.51015 48.8821 9.08627 49.6335 8.79584C50.4095 8.49029 51.2405 8.33455 52.0792 8.3375C53.0344 8.31965 53.9775 8.54492 54.8127 8.99043C55.5968 9.41664 56.2456 10.0395 56.6898 10.7923C57.1574 11.5952 57.3944 12.5031 57.3764 13.4229V21.5968H52.6026V14.4023C52.6026 13.6322 52.3801 13.0233 51.9351 12.5754C51.4901 12.1275 50.8887 11.9036 50.1309 11.9036C49.6666 11.8921 49.2071 11.9961 48.7969 12.2053C48.4291 12.3993 48.1255 12.6886 47.9205 13.0403C47.7062 13.415 47.5979 13.8371 47.6064 14.2645V21.5968H42.8329ZM66.3089 21.999C64.9343 22.0199 63.5762 21.709 62.3592 21.0949C61.2293 20.5262 60.2753 19.6817 59.5932 18.6464C58.9127 17.6007 58.5607 16.3887 58.5796 15.1557C58.5711 14.2329 58.7674 13.319 59.1555 12.4748C59.5356 11.655 60.0826 10.9165 60.7641 10.3026C61.4627 9.67307 62.2823 9.18044 63.1772 8.85228C64.1312 8.5029 65.1448 8.32809 66.1657 8.33687C67.5607 8.33687 68.7836 8.61519 69.8343 9.17183C70.8655 9.71021 71.7195 10.5148 72.2996 11.4948C72.8925 12.4867 73.189 13.6357 73.189 14.9416C73.189 15.0506 73.1868 15.1511 73.1825 15.2433C73.1781 15.3355 73.1628 15.5197 73.1367 15.7958H63.4973C63.4856 16.2735 63.6174 16.7443 63.8768 17.1519C64.1375 17.5436 64.5097 17.8552 64.9493 18.0498C65.4622 18.2735 66.0211 18.3829 66.5842 18.3699C67.1135 18.3817 67.6381 18.2719 68.1144 18.0498C68.6348 17.7727 69.1034 17.4141 69.5008 16.9888L72.9274 18.6337C72.2956 19.6922 71.3572 20.5517 70.2263 21.1075C69.017 21.7103 67.6713 22.0166 66.3089 21.999ZM63.6411 13.4856H68.5064C68.4609 13.106 68.3169 12.7433 68.0876 12.431C67.8725 12.1486 67.5838 11.9256 67.2505 11.7843C66.8745 11.6309 66.4688 11.5561 66.0603 11.5646C65.6364 11.5558 65.2152 11.6329 64.8243 11.7908C64.4884 11.928 64.2002 12.1545 63.9939 12.4438C63.784 12.7557 63.6624 13.1148 63.6411 13.4856ZM72.43 21.5968L78.1585 14.8413L73.241 8.73876H78.7995L81.0491 11.6519L83.2984 8.73939H88.8438L83.9267 14.8418L89.6678 21.5968H83.9398L81.049 18.0437L78.1585 21.5968H72.43ZM96.4949 21.999C95.0475 21.999 93.9184 21.5616 93.1075 20.6869C92.2965 19.8121 91.8911 18.5878 91.8911 17.014V12.2175H89.9424V8.73939H91.8911V3.91771H96.6649V8.73939H99.4634V12.2175H96.6649V16.675C96.6649 17.0769 96.7499 17.3824 96.9199 17.5917C97.0101 17.6978 97.1254 17.7817 97.2562 17.8363C97.387 17.891 97.5295 17.9149 97.6719 17.9059C98.0868 17.8952 98.4865 17.7538 98.8097 17.5037L100 21.1828C99.464 21.4447 98.8977 21.6449 98.3128 21.7793C97.7183 21.9228 97.1079 21.9966 96.4949 21.999Z" fill="black"/>
<path d="M40.4132 15.4823C40.4255 15.93 40.3433 16.3754 40.1716 16.7918C39.9999 17.2081 39.7421 17.5868 39.414 17.9049C38.7478 18.5552 37.9014 18.8803 36.8747 18.8803C35.848 18.8803 35.0016 18.5552 34.3354 17.9049C34.0073 17.5867 33.7497 17.2081 33.5781 16.7917C33.4065 16.3753 33.3244 15.9299 33.3369 15.4823C33.3369 14.4964 33.6699 13.6835 34.3361 13.0435C35.0022 12.4036 35.8486 12.0837 36.8753 12.0839C37.9019 12.0839 38.7483 12.4037 39.4146 13.0435C40.0809 13.6833 40.4138 14.4962 40.4132 15.4823Z" fill="#F36E0C"/>
</svg>
