<svg width="96" height="22" viewBox="0 0 96 22" fill="none" xmlns="http://www.w3.org/2000/svg">
<path d="M9.06509 22C8.26994 22 7.25918 21.8491 6.53516 21.5474C5.81044 21.2456 5.14831 20.8113 4.58274 20.2667V21.5977H0V0H4.58274V9.92011C5.10268 9.40645 5.72524 9.00851 6.40963 8.75235C7.1411 8.47304 7.91815 8.33236 8.70107 8.3375C9.86848 8.31801 11.0176 8.62927 12.0157 9.23535C12.9827 9.82959 13.772 10.6732 14.3009 11.6777C14.8645 12.7537 15.1495 13.9539 15.1295 15.1686C15.1295 16.508 14.8428 17.6926 14.2694 18.7223C13.732 19.7144 12.9413 20.5464 11.978 21.1336C11.0238 21.7109 10.2202 22 9.06509 22ZM7.40771 18.1198C7.93337 18.1311 8.45214 17.9986 8.90814 17.7368C9.33422 17.4866 9.68544 17.1267 9.92519 16.6945C10.1761 16.2393 10.3038 15.7263 10.2956 15.2065C10.3057 14.669 10.1736 14.1383 9.91263 13.6683C9.66757 13.231 9.31266 12.8653 8.88302 12.6073C8.43255 12.3424 7.91755 12.2075 7.39514 12.2175C6.87299 12.2097 6.35857 12.3444 5.90727 12.6073C5.47336 12.8612 5.11396 13.225 4.86521 13.662C4.60379 14.1295 4.47159 14.6583 4.48222 15.194C4.47472 15.7165 4.60472 16.2318 4.85918 16.6882C5.10344 17.1249 5.46143 17.4872 5.89508 17.7367C6.35594 17.9976 6.87838 18.1299 7.40783 18.1198H7.40771ZM23.4412 22C22.1216 22.0209 20.8178 21.71 19.6495 21.0959C18.5647 20.5272 17.6488 19.6826 16.994 18.6472C16.3407 17.6015 16.0029 16.3894 16.0209 15.1564C16.0128 14.2336 16.2013 13.3196 16.5738 12.4754C16.9387 11.6555 17.4638 10.917 18.1181 10.303C18.7887 9.6735 19.5756 9.18085 20.4347 8.85267C21.3505 8.50329 22.3235 8.32847 23.3036 8.33725C24.6428 8.33725 25.8168 8.61558 26.8255 9.17224C27.8155 9.71065 28.6352 10.5153 29.1922 11.4953C29.7614 12.4873 30.046 13.6363 30.046 14.9423C30.046 15.0512 30.0439 15.1518 30.0397 15.244C30.0355 15.3362 30.0209 15.5204 29.9957 15.7965H20.7418C20.7306 16.2742 20.8571 16.745 21.1062 17.1527C21.3564 17.5444 21.7138 17.856 22.1358 18.0506C22.6281 18.2743 23.1646 18.3838 23.7052 18.3708C24.2134 18.3825 24.717 18.2727 25.1742 18.0506C25.6739 17.7735 26.1237 17.4149 26.5052 16.9895L29.7947 18.6345C29.1882 19.6931 28.2873 20.5526 27.2017 21.1084C26.0408 21.7113 24.749 22.0175 23.4412 22ZM20.8799 13.4863H25.5506C25.5069 13.1065 25.3686 12.7439 25.1485 12.4315C24.942 12.1491 24.6649 11.9261 24.3449 11.7848C23.9839 11.6315 23.5945 11.5566 23.2023 11.5651C22.7953 11.5564 22.391 11.6335 22.0158 11.7914C21.6932 11.9285 21.4166 12.1551 21.2185 12.4443C21.0171 12.7563 20.9003 13.1154 20.8799 13.4863ZM41.1195 21.5977V8.73978H45.7023V10.0457C46.2667 9.51057 46.9268 9.08668 47.6482 8.79623C48.3931 8.49067 49.1909 8.33492 49.996 8.33787C50.913 8.32002 51.8184 8.5453 52.6202 8.99083C53.3729 9.41706 53.9958 10.0399 54.4222 10.7928C54.8711 11.5958 55.0986 12.5037 55.0814 13.4235V21.5977H50.4985V14.403C50.4985 13.6328 50.2849 13.0238 49.8577 12.576C49.4304 12.1281 48.8531 11.9041 48.1257 11.9041C47.6799 11.8927 47.2388 11.9966 46.845 12.2059C46.492 12.3999 46.2005 12.6892 46.0037 13.0408C45.798 13.4156 45.694 13.8377 45.7022 14.2652V21.5977H41.1195ZM63.6565 22C62.3369 22.0209 61.0332 21.71 59.8648 21.0959C58.7801 20.5271 57.8642 19.6826 57.2095 18.6472C56.5562 17.6015 56.2183 16.3894 56.2364 15.1564C56.2282 14.2336 56.4167 13.3196 56.7893 12.4754C57.1542 11.6555 57.6792 10.917 58.3336 10.303C59.0042 9.6735 59.791 9.18085 60.6501 8.85267C61.5659 8.50329 62.539 8.32847 63.5191 8.33725C64.8583 8.33725 66.0322 8.61558 67.0409 9.17224C68.0309 9.71065 68.8507 10.5153 69.4076 11.4953C69.9768 12.4873 70.2614 13.6363 70.2614 14.9423C70.2614 15.0512 70.2593 15.1518 70.2552 15.244C70.251 15.3362 70.2363 15.5204 70.2112 15.7965H60.9574C60.9462 16.2742 61.0727 16.745 61.3218 17.1527C61.572 17.5444 61.9293 17.856 62.3514 18.0506C62.8437 18.2743 63.3802 18.3838 63.9208 18.3708C64.429 18.3825 64.9326 18.2727 65.3898 18.0506C65.8894 17.7735 66.3393 17.4149 66.7207 16.9895L70.0103 18.6345C69.4038 19.6931 68.5029 20.5526 67.4173 21.1084C66.2563 21.7113 64.9644 22.0176 63.6565 22ZM61.0955 13.4863H65.7662C65.7225 13.1065 65.5842 12.7439 65.3641 12.4315C65.1576 12.1491 64.8804 11.9261 64.5605 11.7848C64.1995 11.6315 63.81 11.5566 63.4179 11.5651C63.0109 11.5564 62.6066 11.6335 62.2314 11.7914C61.9088 11.9285 61.6322 12.1551 61.4341 12.4443C61.2326 12.7563 61.1159 13.1154 61.0955 13.4863ZM69.5328 21.5977L75.0322 14.842L70.3113 8.73915H75.6475L77.8071 11.6525L79.9665 8.73978H85.2901L80.5696 14.8425L86.0811 21.5977H80.5822L77.807 18.0445L75.0322 21.5977H69.5328ZM92.6351 22C91.2456 22 90.1616 21.5626 89.3831 20.6878C88.6047 19.813 88.2154 18.5887 88.2154 17.0148V12.218H86.3447V8.73978H88.2154V3.91788H92.7983V8.73978H95.4848V12.218H92.7983V16.6757C92.7983 17.0776 92.8799 17.3832 93.0431 17.5925C93.1297 17.6986 93.2404 17.7824 93.366 17.8371C93.4915 17.8918 93.6283 17.9157 93.765 17.9067C94.1633 17.896 94.5471 17.7546 94.8573 17.5045L96 21.1837C95.4855 21.4457 94.9418 21.6459 94.3803 21.7803C93.8096 21.9238 93.2236 21.9976 92.6351 22Z" fill="white"/>
<path d="M38.7966 15.483C38.8084 15.9307 38.7295 16.3762 38.5647 16.7926C38.3998 17.209 38.1524 17.5877 37.8373 17.9058C37.1978 18.5561 36.3853 18.8812 35.3996 18.8812C34.414 18.8812 33.6014 18.5561 32.9619 17.9058C32.647 17.5876 32.3997 17.2089 32.2349 16.7925C32.0702 16.3761 31.9914 15.9307 32.0033 15.483C32.0033 14.4971 32.3231 13.6841 32.9626 13.0442C33.6021 12.4042 34.4146 12.0843 35.4003 12.0845C36.3857 12.0845 37.1983 12.4044 37.838 13.0442C38.4776 13.684 38.7972 14.4969 38.7966 15.483Z" fill="#D8610A"/>
</svg>
