<svg width="1440" height="685" viewBox="0 0 1440 685" fill="none" xmlns="http://www.w3.org/2000/svg">
<g opacity="0.9">
<rect x="1.63383" y="1.36489" width="12.9951" height="12.3714" transform="matrix(0.996317 -0.0857462 0.0929056 0.995675 883.197 99.8066)" stroke="#F36E0C" stroke-width="3"/>
<rect x="2.58097" y="1.24113" width="11.9319" height="11.4368" transform="matrix(0.947793 -0.318885 0.342689 0.939449 1418.64 337.271)" stroke="#F36E0C" stroke-width="4"/>
<rect x="-0.474411" y="2.02781" width="12.545" height="12.8263" transform="matrix(0.542731 0.839907 -0.859005 0.511968 494.231 393.357)" stroke="#F36E0C" stroke-width="3"/>
<rect x="0.376356" y="2.04657" width="12.7987" height="12.5731" transform="matrix(0.833904 0.55191 -0.582999 0.812473 1384.33 643.66)" stroke="#F36E0C" stroke-width="3"/>
<rect x="1.0398" y="1.82379" width="12.9567" height="12.4112" transform="matrix(0.967172 0.254123 -0.273971 0.961738 73.0553 302.639)" stroke="#F36E0C" stroke-width="3"/>
<path d="M1335 68.2118C1335 72.8663 1331.05 76.7761 1326 76.7761C1320.95 76.7761 1317 72.8663 1317 68.2118C1317 63.5573 1320.95 59.6475 1326 59.6475C1331.05 59.6475 1335 63.5573 1335 68.2118Z" stroke="white" stroke-width="4"/>
<path d="M1074 643.484C1074 648.139 1070.05 652.048 1065 652.048C1059.95 652.048 1056 648.139 1056 643.484C1056 638.83 1059.95 634.92 1065 634.92C1070.05 634.92 1074 638.83 1074 643.484Z" stroke="white" stroke-width="4"/>
<path d="M249 631.96C249 636.614 245.048 640.524 240 640.524C234.952 640.524 231 636.614 231 631.96C231 627.305 234.952 623.395 240 623.395C245.048 623.395 249 627.305 249 631.96Z" stroke="white" stroke-width="4"/>
<path d="M538 47.0832C538 51.7377 534.048 55.6475 529 55.6475C523.952 55.6475 520 51.7377 520 47.0832C520 42.4288 523.952 38.519 529 38.519C534.048 38.519 538 42.4288 538 47.0832Z" stroke="white" stroke-width="4"/>
<path d="M1110.09 156.553L1120.47 150.794L1120.47 162.304L1110.09 156.553Z" stroke="#EFD700" stroke-width="4"/>
<path d="M946.276 409.04L948.935 394.358L960.846 403.911L946.276 409.04Z" stroke="#EFD700" stroke-width="2"/>
<path d="M764.669 659.229L766.722 647.891L775.919 655.268L764.669 659.229Z" stroke="#EFD700" stroke-width="4"/>
<path d="M346.795 296.562L342.778 282.166L357.769 286.023L346.795 296.562Z" stroke="#EFD700" stroke-width="2"/>
<path d="M153.308 14.3167L164.586 10.42L162.461 21.7485L153.308 14.3167Z" stroke="#EFD700" stroke-width="4"/>
<path d="M8.36584 678.035L11.0249 663.352L22.9353 672.905L8.36584 678.035Z" stroke="#EFD700" stroke-width="2"/>
</g>
</svg>
