<svg width="56" height="56" viewBox="0 0 56 56" fill="none" xmlns="http://www.w3.org/2000/svg">
<path d="M41.0952 48.794L44.1759 14.2803H28V52.4243L41.0952 48.794Z" fill="#D3E4FF"/>
<path fill-rule="evenodd" clip-rule="evenodd" d="M11.8146 51.372L27.9758 55.8585L44.1817 51.3658L47.7869 10.9775H8.21307L11.8146 51.372ZM16.9134 34.2164L16.4694 29.2622H28V34.2164H16.9134ZM16.0275 24.189L15.5772 19.2347H28V24.189H16.0275ZM27.9783 42.1346L28 42.1288V47.2833L27.9772 47.2895L17.8288 44.4724L17.1348 36.6936H22.1081L22.4608 40.6447L27.9783 42.1346Z" fill="#02133F"/>
<path d="M17.5266 0H23.5268V2.5093H20.0359V5.01859H23.5271V7.52773H17.5266V0ZM24.727 0H30.7274V2.18198H27.2363V2.61835H30.7274V7.63694H24.7272V5.34559H28.2183V4.90923H24.7269V0H24.727ZM31.9276 0H37.928V2.18198H34.4369V2.61835H37.928V7.63694H31.9276V5.34559H35.4187V4.90923H31.9278V0H31.9276Z" fill="black"/>
<path d="M39.4989 29.2622L40.3932 19.2347H27.9829V24.189H34.9639L34.5131 29.2622H27.9829V34.2164H34.0835L33.5083 40.6416L27.9828 42.133V47.2872L38.1393 44.4724L38.2137 43.6354L39.3781 30.5925L39.4989 29.2622Z" fill="#9BA6B8"/>
</svg>
