<svg width="56" height="56" viewBox="0 0 56 56" fill="none" xmlns="http://www.w3.org/2000/svg">
<g clip-path="url(#clip0_47_75)">
<path d="M11.8563 0H14.3719V2.49375H16.6906V0H19.2063V7.54688H16.6906V5.03125H14.3938V7.54688H11.8563V0ZM22.5313 2.51562H20.3109V0H27.2781V2.51562H25.0469V7.54688H22.5313V2.51562ZM28.3828 0H31.0188L32.6375 2.65781L34.2563 0H36.8922V7.54688H34.3766V3.80625L32.6156 6.51875L30.8547 3.80625V7.54688H28.3828V0ZM38.1391 0H40.6547V5.05312H44.2203V7.54688H38.1391" fill="#9BA6B8"/>
<path d="M28 52.5547V14.3281H44.2203L41.125 48.8906" fill="#D3E4FF"/>
<path fill-rule="evenodd" clip-rule="evenodd" d="M8.15936 11.0032L11.7687 51.5157L27.9672 56L44.2312 51.4938L47.8406 11.0032H8.15936ZM28 19.2828H15.5312L16.8875 34.2891H28V29.3344H21.4375L20.9781 24.2485H28V19.2828ZM22.0938 36.7828H17.1062L17.8062 44.5813L28 47.425V42.2407L22.4437 40.7532L22.0938 36.7828Z" fill="#02133F"/>
<path d="M40.425 19.2828H27.9781V24.2485H39.9656L40.425 19.2828ZM39.5172 29.3344H27.9781V34.3H34.1031L33.5234 40.7531L27.9781 42.2407V47.4031L38.15 44.5813" fill="#9BA6B8"/>
</g>
<defs>
<clipPath id="clip0_47_75">
<rect width="56" height="56" fill="white"/>
</clipPath>
</defs>
</svg>
