<svg width="52" height="52" viewBox="0 0 52 52" fill="none" xmlns="http://www.w3.org/2000/svg">
<g clip-path="url(#clip0_626_25)">
<path d="M0.1 26V6C0.1 2.74152 2.74152 0.1 6 0.1H26H46C49.2585 0.1 51.9 2.74152 51.9 6V26V46C51.9 49.2585 49.2585 51.9 46 51.9H26H6C2.74152 51.9 0.1 49.2585 0.1 46V26ZM22.781 47.8125C24.3621 47.5392 25.6356 46.8957 26.5669 45.9068C27.4981 44.9182 28.0807 43.5914 28.292 41.9628C28.3035 41.8746 28.3132 41.566 28.322 41.0828C28.3307 40.5955 28.3385 39.9224 28.345 39.0978C28.3581 37.4487 28.366 35.1926 28.3667 32.6023L28.3683 26.2232C28.3687 24.8328 27.2416 23.7054 25.8512 23.7054C24.4607 23.7054 23.3333 24.8326 23.3331 26.2232L23.3322 32.1187C23.3318 34.6064 23.3241 36.7549 23.3109 38.3338C23.2977 39.9169 23.279 40.9196 23.2575 41.1234C23.1852 41.8101 23.0219 42.3063 22.7517 42.658C22.4835 43.0071 22.1016 43.2248 21.5679 43.3379C20.8064 43.4993 20.1507 43.426 19.5704 43.1134C18.988 42.7996 18.4708 42.2388 17.9992 41.4057C17.9366 41.2951 17.8701 41.1935 17.8125 41.1183C17.7839 41.081 17.7558 41.048 17.7302 41.0232C17.7175 41.011 17.7031 40.9986 17.6877 40.9885C17.6754 40.9805 17.6483 40.9644 17.613 40.9644C17.5991 40.9644 17.5883 40.9673 17.5848 40.9682C17.5797 40.9695 17.5754 40.9711 17.5723 40.9722C17.5661 40.9745 17.5599 40.9772 17.5544 40.9798C17.5514 40.9811 17.5482 40.9826 17.5448 40.9843C17.5355 40.9887 17.5249 40.9941 17.5133 41.0002C17.4813 41.0169 17.4373 41.0409 17.3835 41.0709C17.2758 41.1312 17.1261 41.2171 16.9484 41.3203C16.593 41.5268 16.1244 41.8034 15.6535 42.0839C15.1826 42.3644 14.7091 42.6491 14.344 42.8719C14.1614 42.9832 14.0057 43.0793 13.8908 43.1517C13.8334 43.1879 13.7857 43.2184 13.7499 43.2421C13.7167 43.2641 13.6874 43.2842 13.6719 43.2978C13.6354 43.3298 13.6243 43.3726 13.6216 43.4044C13.6189 43.4367 13.6234 43.4704 13.6305 43.5019C13.6448 43.5656 13.6746 43.6425 13.7139 43.7266C13.7931 43.896 13.9197 44.1131 14.0721 44.3462C14.377 44.8126 14.793 45.3553 15.16 45.7273C16.9603 47.5524 19.8103 48.3259 22.781 47.8125ZM41.486 47.8515C43.4936 47.5985 45.1369 46.8216 46.3433 45.5471C46.8369 45.0257 47.0258 44.7535 47.3248 44.1319C47.5678 43.6265 47.722 43.2408 47.8207 42.8217C47.9192 42.4032 47.9614 41.9559 47.9854 41.3286C48.0729 39.0405 47.4665 37.4104 45.9935 36.0032C44.9413 34.998 43.6179 34.2257 41.1411 33.1611C39.8725 32.6158 39.05 32.2213 38.4989 31.8692C37.9509 31.519 37.678 31.215 37.5023 30.8521C37.2584 30.3482 37.2699 29.5742 37.5336 29.0371C37.7291 28.639 38.0134 28.351 38.3866 28.1692C38.7613 27.9865 39.2319 27.9079 39.8028 27.9405C40.3447 27.9714 40.7993 28.1006 41.1998 28.3428C41.6009 28.5853 41.9535 28.9445 42.2856 29.4442C42.5029 29.7711 42.9423 29.8633 43.2728 29.6514L44.4636 28.8877C45.3974 28.2888 46.2557 27.7266 46.3653 27.6411C46.5141 27.525 46.5476 27.3135 46.4421 27.1571L46.1573 26.735C45.0911 25.1545 43.6771 24.1484 41.8916 23.7024C41.4363 23.5887 40.7066 23.5186 39.9735 23.4975C39.2399 23.4763 38.4912 23.5039 37.9972 23.5899C36.3838 23.8707 35.2352 24.4387 34.1797 25.4825C33.2251 26.4266 32.7067 27.3755 32.4391 28.6696C32.3438 29.13 32.3164 29.7898 32.345 30.4416C32.3735 31.0935 32.4587 31.7486 32.5939 32.1996C33.2794 34.4864 34.8229 35.9526 37.9488 37.3326C38.5559 37.6006 39.5039 38.0195 40.0555 38.2635C41.1655 38.7544 41.8823 39.1702 42.3222 39.6104C42.7555 40.0442 42.9227 40.5046 42.9227 41.1016C42.9227 41.6531 42.7478 42.1155 42.4105 42.4841C42.0717 42.8543 41.5629 43.1364 40.8851 43.313C40.5293 43.4057 40.0033 43.4372 39.466 43.4113C38.9292 43.3854 38.3932 43.3027 38.0183 43.174C36.9863 42.8199 35.9921 42.0202 35.3079 40.9874C35.2071 40.8353 35.1223 40.7232 35.0491 40.6524C35.0127 40.6171 34.9741 40.587 34.933 40.569C34.89 40.5501 34.8396 40.5428 34.7889 40.5623C34.752 40.5764 34.6623 40.6239 34.5437 40.6891C34.4213 40.7565 34.2594 40.8477 34.072 40.9545C33.6972 41.1683 33.2194 41.4453 32.7489 41.721C32.2784 41.9966 31.8149 42.2711 31.4689 42.4796C31.296 42.5838 31.152 42.6719 31.051 42.7355C31.0006 42.7672 30.9601 42.7933 30.9318 42.8126C30.9179 42.8221 30.9054 42.8309 30.8959 42.8384C30.8914 42.8419 30.8852 42.8469 30.8794 42.8526C30.8781 42.854 30.8761 42.856 30.8738 42.8585C30.8715 42.8611 30.869 42.8642 30.8664 42.8678C30.8647 42.8702 30.8471 42.8932 30.8471 42.9275C30.8471 42.959 30.8583 42.9904 30.8671 43.0122C30.8773 43.0375 30.8915 43.0664 30.9081 43.0975C30.9416 43.16 30.9891 43.238 31.0461 43.3263C31.1604 43.5032 31.3172 43.7269 31.4884 43.9595C31.8298 44.4233 32.2349 44.9312 32.4819 45.1795C34.6488 47.3578 37.8686 48.3074 41.486 47.8515Z" stroke="#02133F" stroke-width="0.2"/>
<path d="M20.123 47.8232C18.2137 47.6828 16.4659 46.9089 15.2312 45.6571C14.5093 44.9253 13.5832 43.5088 13.7379 43.3729C13.8862 43.2427 17.5426 41.0644 17.613 41.0644C17.6559 41.0644 17.7906 41.2401 17.9122 41.4549C18.8662 43.1404 20.0282 43.7665 21.5886 43.4358C22.6903 43.2023 23.2105 42.5251 23.357 41.1339C23.4012 40.7138 23.4314 37.0945 23.4322 32.1188L23.4331 26.2232C23.4333 24.8878 24.5159 23.8054 25.8512 23.8054C27.1864 23.8054 28.2687 24.888 28.2683 26.2232L28.2667 32.6023C28.2653 37.7825 28.235 41.6256 28.1929 41.9499C27.6636 46.0274 24.7308 48.1619 20.123 47.8232ZM38.902 47.8284C35.6314 47.601 33.081 46.2034 31.4588 43.7496C31.1773 43.3239 30.9471 42.954 30.9471 42.9275C30.9471 42.8809 34.5941 40.7442 34.8248 40.6556C34.9049 40.6249 35.0242 40.7404 35.2245 41.0427C35.9193 42.0914 36.9304 42.9064 37.9858 43.2686C38.7603 43.5344 40.1708 43.6025 40.9103 43.4098C42.291 43.05 43.0227 42.2505 43.0227 41.1016C43.0227 39.8598 42.3188 39.1551 40.096 38.172C39.5443 37.9281 38.5963 37.5092 37.9892 37.2412C34.8777 35.8675 33.3636 34.4189 32.6897 32.1709C32.4261 31.2916 32.3513 29.5875 32.537 28.6898C32.8006 27.4154 33.3092 26.4841 34.2501 25.5537C35.2894 24.5257 36.4188 23.9661 38.0143 23.6884C38.9828 23.5199 40.9782 23.5773 41.8674 23.7994C43.6279 24.2392 45.0215 25.2301 46.0744 26.7909L46.3592 27.213C46.4353 27.3259 46.4111 27.4785 46.3038 27.5622C46.1989 27.6441 45.3466 28.2027 44.4096 28.8035L43.2188 29.5672C42.9343 29.7497 42.556 29.6703 42.3689 29.3888C41.693 28.3721 40.9188 27.904 39.8085 27.8407C38.6434 27.7742 37.8533 28.1593 37.4438 28.9931C37.2658 29.3556 37.2342 29.5096 37.2395 29.9869C37.2546 31.3358 37.8885 31.8719 41.1016 33.253C43.5753 34.3162 44.8853 35.0829 45.9244 36.0755C47.3739 37.4602 47.972 39.0612 47.8854 41.3248C47.8376 42.5753 47.7179 43.0837 47.2347 44.0885C45.9878 46.6812 42.824 48.1012 38.902 47.8284Z" fill="#02133F"/>
</g>
<defs>
<clipPath id="clip0_626_25">
<rect width="52" height="52" fill="white"/>
</clipPath>
</defs>
</svg>
