<svg width="60" height="36" viewBox="0 0 60 36" fill="none" xmlns="http://www.w3.org/2000/svg">
<g clip-path="url(#clip0_45_33)">
<path d="M14.1575 9.38578H25.474V10.28H15.1948V17.0101H24.861V17.9044H15.1948V25.2934H25.5919V26.1876H14.1575V9.38578ZM26.4878 9.38578H27.6902L33.0184 16.7748L38.4645 9.38578L45.8721 0L33.7021 17.5514L39.9734 26.1876H38.7238L33.0184 18.3279L27.2894 26.1876H26.0634L32.3818 17.5514L26.4878 9.38578ZM40.4213 10.28V9.38578H53.3175V10.28H47.3763V26.1876H46.3389V10.28H40.4213ZM0 9.38578H1.29669L19.1773 35.9865L11.7881 26.1876L1.0845 10.6565L1.03735 26.1876H0V9.38578ZM53.2129 25.0236C53.001 25.0236 52.842 24.8603 52.842 24.6493C52.842 24.4383 53.001 24.2751 53.2129 24.2751C53.4274 24.2751 53.5838 24.4383 53.5838 24.6493C53.5838 24.8603 53.4274 25.0236 53.2129 25.0236ZM54.2323 24.039H54.7873C54.7949 24.3379 55.0144 24.5388 55.3374 24.5388C55.6982 24.5388 55.9025 24.3228 55.9025 23.9184V21.3565H56.4677V23.9209C56.4677 24.6493 56.0438 25.0688 55.3424 25.0688C54.6839 25.0688 54.2323 24.6619 54.2323 24.039ZM57.207 24.0063H57.7671C57.815 24.3504 58.1531 24.5689 58.6401 24.5689C59.0942 24.5689 59.4273 24.3354 59.4273 24.0139C59.4273 23.7376 59.2153 23.5718 58.7334 23.4588L58.2641 23.3458C57.6056 23.1926 57.3054 22.8761 57.3054 22.3436C57.3054 21.6981 57.8352 21.2686 58.63 21.2686C59.3692 21.2686 59.9092 21.6981 59.942 22.3085H59.3919C59.339 21.9744 59.0463 21.7659 58.6224 21.7659C58.1758 21.7659 57.8781 21.9794 57.8781 22.306C57.8781 22.5646 58.0698 22.7128 58.5442 22.8233L58.9454 22.9213C59.6922 23.0946 60 23.396 60 23.941C60 24.6342 59.4601 25.0688 58.5972 25.0688C57.7898 25.0688 57.2473 24.6543 57.207 24.0063Z" fill="#02133F"/>
</g>
<defs>
<clipPath id="clip0_45_33">
<rect width="60" height="36" fill="white"/>
</clipPath>
</defs>
</svg>
