<svg width="72" height="26" viewBox="0 0 72 26" fill="none" xmlns="http://www.w3.org/2000/svg">
<path d="M15.4519 13.761C15.4519 13.4813 15.2942 13.2241 15.0357 13.0855L8.14197 9.38124C8.02543 9.31726 7.89471 9.28375 7.76245 9.27881H7.69119C7.55944 9.28375 7.42889 9.3171 7.31047 9.38124L0.416779 13.0855C0.159774 13.2241 0 13.4813 0 13.761L0.0152084 23.7357C0.0152084 23.8745 0.0922758 24.0034 0.223171 24.0715C0.351161 24.1432 0.509226 24.1432 0.636703 24.0715L4.73358 21.881C4.99263 21.7372 5.15036 21.4839 5.15036 21.2066V16.5464C5.15036 16.2686 5.30791 16.0114 5.56611 15.8734L7.31047 14.9352C7.44068 14.865 7.58268 14.8309 7.72793 14.8309C7.86993 14.8309 8.01569 14.865 8.14197 14.9352L9.88599 15.8734C10.144 16.0114 10.3023 16.2686 10.3023 16.5464V21.2066C10.3023 21.4839 10.462 21.739 10.7195 21.881L14.8152 24.0715C14.9439 24.1432 15.1044 24.1432 15.2317 24.0715C15.3585 24.0034 15.4384 23.8745 15.4384 23.7357L15.4519 13.761Z" fill="#9BA6B8"/>
<path d="M48.6219 0.0491471C48.4929 -0.0178663 48.3353 -0.0162707 48.2079 0.0534551C48.0807 0.12334 48.0025 0.250825 48.0025 0.388682V10.2669C48.0025 10.3639 47.9468 10.4539 47.857 10.5026C47.7668 10.5513 47.6557 10.5513 47.5655 10.5026L45.8388 9.57382C45.5813 9.43517 45.2643 9.43533 45.0069 9.57414L38.1105 13.2902C37.8526 13.429 37.6941 13.6857 37.6941 13.9635V21.3972C37.6941 21.6752 37.8526 21.9317 38.1103 22.0709L45.0062 25.7899C45.2641 25.9288 45.5816 25.9288 45.8393 25.7899L52.7366 22.0709C52.9941 21.9317 53.1528 21.6752 53.1528 21.3972V2.86642C53.1528 2.58481 52.9895 2.32473 52.7256 2.18735L48.6219 0.0491471ZM47.982 18.9549C47.982 19.0241 47.9423 19.0884 47.8779 19.1229L45.51 20.3974C45.4457 20.4319 45.3665 20.4319 45.302 20.3974L42.9343 19.1229C42.8697 19.0884 42.8302 19.0241 42.8302 18.9549V16.402C42.8302 16.3326 42.8697 16.2683 42.9341 16.2335L45.3019 14.9564C45.3665 14.9217 45.4457 14.9217 45.5103 14.9564L47.8781 16.2335C47.9423 16.2683 47.982 16.3326 47.982 16.402V18.9549Z" fill="#9BA6B8"/>
<path d="M71.5856 16.3351C71.8421 16.1959 72 15.9399 72 15.6629V13.8613C72 13.5843 71.8421 13.3279 71.5853 13.1888L64.7333 9.47419C64.4756 9.33426 64.1572 9.33394 63.8989 9.47339L57.0048 13.1894C56.7475 13.3284 56.5886 13.585 56.5886 13.8628V21.2947C56.5886 21.5743 56.7494 21.8321 57.0093 21.9701L63.8604 25.6153C64.113 25.75 64.4226 25.7516 64.6769 25.6196L68.8207 23.469C68.9522 23.4008 69.034 23.2719 69.0347 23.1318C69.0357 22.9916 68.9561 22.8617 68.8259 22.792L61.8883 19.0739C61.7586 19.0044 61.6791 18.8757 61.6791 18.7364V16.4074C61.6791 16.2685 61.7584 16.1399 61.8874 16.0707L64.0465 14.9083C64.175 14.8391 64.3337 14.8391 64.4621 14.9083L66.6224 16.0707C66.7515 16.1399 66.8308 16.2685 66.8308 16.4074V18.2399C66.8308 18.3791 66.9105 18.5076 67.0395 18.577C67.1687 18.6466 67.3276 18.6461 67.4563 18.576L71.5856 16.3351Z" fill="#9BA6B8"/>
<path d="M64.2144 15.987C64.2638 15.9602 64.3248 15.9602 64.3742 15.987L65.6975 16.6999C65.7471 16.7266 65.7775 16.7757 65.7775 16.8292V18.2559C65.7775 18.3092 65.7471 18.3585 65.6975 18.3851L64.3742 19.098C64.3248 19.1247 64.2638 19.1247 64.2144 19.098L62.8922 18.3851C62.8428 18.3585 62.8122 18.3092 62.8122 18.2559V16.8292C62.8122 16.7757 62.8428 16.7266 62.8922 16.6999L64.2144 15.987Z" fill="#02133F"/>
<path d="M26.1592 9.51184L19.3207 13.1974C19.0649 13.3351 18.9075 13.5898 18.9075 13.8653V21.2425C18.9075 21.5182 19.0649 21.7727 19.3203 21.9108L26.1588 25.5994C26.4145 25.7371 26.7296 25.7371 26.9854 25.5994L33.8254 21.9108C34.0811 21.7727 34.2384 21.5182 34.2384 21.2425V13.8656C34.2384 13.5898 34.0811 13.3351 33.8253 13.1974L26.9851 9.51184C26.8574 9.44291 26.7147 9.40845 26.572 9.40845C26.4295 9.40845 26.2868 9.44291 26.1592 9.51184Z" fill="#02133F"/>
</svg>
