<svg width="52" height="46" viewBox="0 0 52 46" fill="none" xmlns="http://www.w3.org/2000/svg">
<g clip-path="url(#clip0_268_254)">
<path d="M26 27.6083C28.5597 27.6083 30.6348 25.5451 30.6348 23.0001C30.6348 20.455 28.5597 18.3918 26 18.3918C23.4403 18.3918 21.3652 20.455 21.3652 23.0001C21.3652 25.5451 23.4403 27.6083 26 27.6083Z" fill="#02133F"/>
<path d="M26 32.4413C39.7351 32.4413 50.8696 28.2143 50.8696 23C50.8696 17.7858 39.7351 13.5588 26 13.5588C12.2649 13.5588 1.13043 17.7858 1.13043 23C1.13043 28.2143 12.2649 32.4413 26 32.4413Z" stroke="#02133F"/>
<path d="M17.7765 27.7206C24.6441 39.5474 33.8931 47.0213 38.4348 44.4142C42.9765 41.8071 41.091 30.1062 34.2235 18.2794C27.3559 6.45269 18.1069 -1.02128 13.5652 1.58584C9.02352 4.19296 10.909 15.8939 17.7765 27.7206Z" stroke="#02133F"/>
<path d="M17.7765 18.2794C10.909 30.1061 9.02352 41.8071 13.5652 44.4142C18.1069 47.0213 27.3559 39.5473 34.2235 27.7206C41.091 15.8939 42.9765 4.19291 38.4348 1.58579C33.8931 -1.02133 24.6441 6.45265 17.7765 18.2794Z" stroke="#02133F"/>
</g>
<defs>
<clipPath id="clip0_268_254">
<rect width="52" height="46" fill="white"/>
</clipPath>
</defs>
</svg>
