<svg width="52" height="50" viewBox="0 0 52 50" fill="none" xmlns="http://www.w3.org/2000/svg">
<g clip-path="url(#clip0_268_263)">
<path d="M36.0305 34.7809C37.9494 34.5805 39.4052 32.9118 39.339 30.9091C39.273 28.9066 37.6185 27.3045 35.6334 27.3045H35.5012C33.4496 27.3713 31.8616 29.1068 31.9278 31.1761C31.994 32.1775 32.3909 33.0452 32.9865 33.646C30.7367 38.1186 27.2957 41.3894 22.1343 44.1263C18.6272 45.9954 14.9878 46.663 11.3484 46.1958C8.37058 45.7952 6.05454 44.4603 4.59854 42.2572C2.48117 38.9863 2.28272 35.4483 4.0694 31.9105C5.32675 29.3738 7.31169 27.5047 8.56903 26.5701C8.30436 25.7023 7.90725 24.2338 7.70879 23.1659C-1.88622 30.1749 -0.893549 39.6539 2.01804 44.1263C4.20164 47.4642 8.63525 49.5335 13.532 49.5335C14.8553 49.5335 16.1787 49.3999 17.5023 49.0663C25.9724 47.3974 32.3911 42.324 36.0305 34.7809ZM47.6769 26.5035C42.6477 20.5624 35.2365 17.2915 26.7664 17.2915H25.7077C25.1121 16.09 23.8548 15.2888 22.4652 15.2888H22.3328C20.2816 15.3556 18.6936 17.0911 18.7596 19.1606C18.8258 21.1632 20.4801 22.7653 22.4652 22.7653H22.5975C24.0532 22.6985 25.3106 21.7639 25.8399 20.4956H27.0311C32.0602 20.4956 36.8245 21.9641 41.1259 24.8346C44.4344 27.0375 46.8167 29.908 48.14 33.379C49.2649 36.1827 49.1987 38.9195 48.0076 41.256C46.1549 44.7939 43.0448 46.7298 38.9421 46.7298C36.2952 46.7298 33.7807 45.9286 32.4571 45.3279C31.7293 45.9954 30.4058 47.0634 29.4793 47.7311C32.3249 49.0661 35.2365 49.8004 38.0157 49.8004C44.3682 49.8004 49.0665 46.2624 50.8532 42.7246C52.7721 38.8527 52.6396 32.1775 47.6769 26.5035ZM14.0613 35.9155C14.1275 37.9182 15.7818 39.5201 17.7669 39.5201H17.8994C19.9507 39.4535 21.5388 37.7178 21.4725 35.6485C21.4065 33.6458 19.7521 32.0439 17.7669 32.0439H17.6347C17.5023 32.0439 17.3036 32.0439 17.1716 32.1104C14.4584 27.5713 13.3335 22.6317 13.7306 17.2913C13.9951 13.2861 15.3187 9.81487 17.6347 6.9444C19.5536 4.47451 23.2592 3.27296 25.7739 3.20637C32.788 3.07277 35.7656 11.8842 35.9643 15.4222C36.8245 15.6224 38.2803 16.0898 39.273 16.4236C38.4788 5.60966 31.8616 0.00231934 25.5092 0.00231934C19.5536 0.00231934 14.0613 4.34132 11.8775 10.7496C8.8337 19.294 10.8188 27.5047 14.5244 33.9798C14.1938 34.4469 13.9951 35.1813 14.0613 35.9157V35.9155Z" fill="#02133F"/>
</g>
<defs>
<clipPath id="clip0_268_263">
<rect width="52" height="50" fill="white"/>
</clipPath>
</defs>
</svg>
