<svg width="52" height="52" viewBox="0 0 52 52" fill="none" xmlns="http://www.w3.org/2000/svg">
<g clip-path="url(#clip0_45_38)">
<path fill-rule="evenodd" clip-rule="evenodd" d="M32.1953 41.3359V46.4141C33.018 46.8406 34.0234 47.1555 35.1406 47.3687C36.2578 47.582 37.4766 47.6836 38.6953 47.6836C39.9141 47.6836 41.0312 47.5719 42.1484 47.3383C43.2656 47.1047 44.1797 46.7187 44.9922 46.2211C45.8148 45.6828 46.5156 45.0023 46.9219 44.0883C47.3281 43.1742 47.643 42.1586 47.643 40.8383C47.643 39.9141 47.5008 39.1117 47.2266 38.4008C46.9523 37.6898 46.5562 37.0805 46.0078 36.5726C45.4898 36.0344 44.8906 35.557 44.1797 35.1508C43.4687 34.7445 42.6562 34.318 41.7422 33.932C41.0719 33.6578 40.5234 33.3937 39.9141 33.1297C39.3859 32.8656 38.9289 32.6016 38.5937 32.3375C38.218 32.0633 37.9336 31.7789 37.7305 31.4844C37.5273 31.1797 37.4258 30.8445 37.4258 30.4687C37.4258 30.1234 37.5162 29.8086 37.7 29.5242C37.8838 29.2398 38.1367 29.0062 38.4617 28.8031C38.7867 28.6 39.193 28.4476 39.6805 28.3359C40.1578 28.2242 40.6859 28.1734 41.3055 28.1734C41.732 28.1734 42.1789 28.2049 42.6258 28.2689C43.093 28.3329 43.5703 28.4314 44.0477 28.5634C44.525 28.6955 44.9922 28.858 45.4695 29.0611C45.9164 29.2642 46.3328 29.4978 46.6883 29.7619V24.9884C45.9164 24.6939 45.0633 24.4705 44.1492 24.3283C43.2352 24.1861 42.2195 24.115 41.0008 24.115C39.782 24.115 38.6648 24.247 37.5477 24.5009C36.4305 24.7548 35.5164 25.1611 34.7039 25.7197C33.8813 26.2681 33.282 26.9384 32.7742 27.8525C32.2969 28.7056 32.0633 29.6806 32.0633 30.8994C32.0633 32.4228 32.5 33.7431 33.3836 34.7587C34.257 35.8759 35.618 36.6884 37.3445 37.5009C38.0453 37.7853 38.6648 38.0697 39.2742 38.3439C39.8836 38.6181 40.3914 38.9025 40.7977 39.197C41.2344 39.4916 41.5797 39.8166 41.8133 40.1619C42.0672 40.5072 42.1992 40.9134 42.1992 41.3806C42.1992 41.7056 42.12 42.0103 41.9656 42.2947C41.8112 42.5791 41.5695 42.8228 41.2445 43.0259C40.9195 43.2291 40.5234 43.3916 40.0258 43.5134C39.5484 43.6251 39.0102 43.6861 38.2992 43.6861C37.182 43.6861 36.0648 43.4931 35.0492 43.1072C33.932 42.7212 32.9164 42.1423 32.0023 41.3806L32.1953 41.3359ZM23.6641 28.8437H30.1641V24.6797H11.9844V28.8437H18.4844V47.4297H23.6641V28.8437Z" fill="#02133F"/>
</g>
<rect x="0.1" y="0.1" width="51.8" height="51.8" rx="4.9" stroke="#02133F" stroke-width="0.2"/>
<defs>
<clipPath id="clip0_45_38">
<rect width="52" height="52" rx="5" fill="white"/>
</clipPath>
</defs>
</svg>
